<svg width="103" height="51" viewBox="0 0 103 51" fill="none" xmlns="http://www.w3.org/2000/svg">
  <path fill-rule="evenodd" clip-rule="evenodd" d="M57.3779 4.72389e-05C61.3761 -0.0142269 64.6306 3.20821 64.6454 7.19653C64.66 11.1823 61.43 14.4271 57.4318 14.441C53.4313 14.4548 50.1801 11.2323 50.1651 7.24655C50.15 3.25865 53.3774 0.0139005 57.3779 4.72389e-05ZM73.4083 4.72389e-05C77.4064 -0.0142269 80.6608 3.20821 80.6757 7.19653C80.6903 11.1823 77.4601 14.4271 73.4619 14.441C69.4616 14.4548 66.2104 11.2323 66.1954 7.24655C66.1803 3.25865 69.4077 0.0139005 73.4083 4.72389e-05ZM38.7593 35.5865C42.7578 35.5724 46.012 38.7948 46.0266 42.7831C46.0414 46.7689 42.8112 50.0133 38.8129 50.0274C34.8125 50.041 31.5614 46.8188 31.5463 42.8331C31.5312 38.845 34.7587 35.6003 38.7593 35.5865ZM7.21299 35.5865C11.2115 35.5724 14.4658 38.7948 14.4804 42.7831C14.4952 46.7689 11.2649 50.0133 7.26661 50.0274C3.26631 50.041 0.015098 46.8188 5.11364e-05 42.8331C-0.0148123 38.845 3.21238 35.6003 7.21299 35.5865ZM23.2474 35.5865C27.2458 35.5724 30.5 38.7948 30.5148 42.7831C30.5294 46.7689 27.2992 50.0133 23.301 50.0274C19.3007 50.041 16.0496 46.8188 16.0345 42.8331C16.0195 38.845 19.2468 35.6003 23.2474 35.5865ZM36.8063 29.3987L38.9995 29.3909C40.1408 29.3861 41.0018 28.9265 41.5838 28.0058C42.1637 27.0881 42.5308 25.942 42.6931 24.5665C42.8555 23.1957 42.9309 21.5404 42.9242 19.5944L42.9015 13.0657C42.8951 11.2712 42.8085 9.73795 42.631 8.47222C42.4528 7.20835 42.0773 6.16282 41.5047 5.34132C40.9302 4.5305 40.0962 4.12295 38.9954 4.12698L36.7188 4.13527L36.8063 29.3987ZM33.6137 1.05113L39.1733 1.03091C40.6868 1.02571 41.912 1.49784 42.8506 2.45477C43.794 3.40897 44.4873 4.64804 44.9341 6.17543C45.3745 7.71125 45.6717 9.31009 45.8062 10.9867C45.9458 12.659 46.0169 14.5769 46.0248 16.729C46.0324 18.8944 45.975 20.8182 45.8475 22.4945C45.7255 24.1685 45.4396 25.7695 44.9921 27.29C44.5499 28.8157 43.8548 30.0461 42.9217 31.0059C41.9748 31.9615 40.7392 32.4498 39.2132 32.4718L33.7268 32.4916L33.6137 1.05113ZM21.4244 1.0623L29.9523 1.03125L31.0313 4.19853L24.4174 4.22164L24.4622 16.706L30.7254 16.6829L30.7365 19.8568L24.56 19.8791L24.5939 29.3106L30.7705 29.2882L30.7818 32.4588L21.5372 32.492L21.4921 19.89L19.1367 19.8985L20.1865 16.8029L21.481 16.7984L21.4244 1.0623ZM9.06554 31.313L6.17556 10.1317L2.81661 33.008L0 32.4404L4.78213 2.72198L7.27166 0.105327L9.257 17.2987L11.2773 2.6166L13.8416 0L18.1005 32.2905L15.4123 32.874L12.6656 10.0202L9.06554 31.313ZM92.3484 17.0195L96.4145 41.8517L100.107 17.066L102.915 17.5839L97.5045 50.0275L94.9538 47.4304L89.4688 17.6325L92.3484 17.0195ZM77.7903 17.5668L86.3172 17.5362L87.3977 20.705L80.7833 20.7291L80.8276 33.2113L87.0892 33.1889L87.1009 36.3592L80.9254 36.3815L80.9594 45.8114L87.1341 45.7891L87.1461 48.964L77.9025 48.997L77.8577 36.3928L75.5031 36.4013L76.5522 33.3058L77.8466 33.3016L77.7903 17.5668ZM70.8401 35.7755L70.4565 36.0266L74.4697 48.522L72.0052 49.5127L66.9773 33.1463L67.6318 33.1442C68.3831 33.1412 69.0003 32.9913 69.4798 32.6964C69.9549 32.4027 70.3295 31.7993 70.5981 30.8895C70.8693 29.9821 71.0001 28.6395 70.994 26.8708C70.9575 25.2537 70.8191 24.0056 70.5703 23.1139C70.3292 22.2271 69.9418 21.5996 69.4159 21.2394C68.8884 20.878 68.1599 20.6973 67.2409 20.7004L66.4718 20.7034L66.571 48.8765L63.7195 48.8866L63.6094 17.5504L67.4687 17.5363C68.9628 17.5307 70.1864 17.7916 71.1253 18.3103C72.0634 18.8341 72.774 19.7742 73.2608 21.1266C73.7533 22.4725 74.0114 24.3869 74.0458 26.8598C74.0527 28.7216 73.9284 30.2467 73.6693 31.4349C73.4189 32.6143 73.1032 33.4942 72.7414 34.0718C72.371 34.6579 71.9996 35.0649 71.6154 35.296C71.2365 35.5334 70.9741 35.6908 70.8401 35.7755ZM53.3112 33.5237L53.9523 33.5217C54.9767 33.5175 55.766 33.3624 56.3265 33.0509C56.8791 32.7412 57.2836 32.1454 57.5458 31.2467C57.8005 30.3551 57.9266 29.0168 57.9204 27.2424C57.9145 25.6445 57.7837 24.4108 57.5244 23.5296C57.2713 22.6539 56.859 22.0335 56.2971 21.6782C55.7418 21.321 54.9679 21.1424 53.9803 21.1457L53.2662 21.1482L53.3112 33.5237ZM53.6388 48.987L50.7938 48.9979L50.6836 17.5511L54.53 17.5372C56.0182 17.5313 57.2257 17.7933 58.1548 18.3191C59.0896 18.8466 59.7957 19.794 60.281 21.1602C60.7665 22.5235 61.0179 24.4338 61.0265 26.889C61.0334 28.9123 60.9105 30.5445 60.6648 31.7765C60.4136 33.008 60.0385 33.9459 59.5277 34.6018C59.0217 35.2551 58.3885 35.7015 57.6394 35.9344C56.8916 36.1697 55.9415 36.2873 54.7893 36.2919L53.5942 36.2964L53.6388 48.987ZM88.9242 4.72389e-05C92.9225 -0.0142269 96.177 3.20821 96.1916 7.19653C96.2064 11.1823 92.9761 14.4271 88.9779 14.441C84.9776 14.4548 81.7266 11.2323 81.7113 7.24655C81.6965 3.25865 84.9234 0.0139005 88.9242 4.72389e-05Z" fill="#005500"/>
</svg>
