<svg viewBox="0 0 225 41" fill="none" xmlns="http://www.w3.org/2000/svg">
<path d="M182.757 0.755859H168.531V39.4666H182.757V0.755859Z" fill="#FDFDFD"/>
<path d="M172.162 0.755859L181.514 20.0424L172.215 39.4666H224.24V0.755859H172.162Z" fill="#274E94"/>
<path d="M170.188 39.4666H0.755859V0.755859H170.188L179.544 20.1165L170.188 39.4666Z" fill="#274E94"/>
<path d="M214.306 31.8451H206.462L202.817 25.9049H206.522L202.563 20.4131H211.113L215.394 26.3534H210.93L214.306 31.8451Z" fill="#FDFDFD"/>
<path d="M188.44 31.8451H196.28L199.928 25.9049H196.22L200.179 20.4131H191.629L187.349 26.3534H191.813L188.44 31.8451Z" fill="#FDFDFD"/>
<path d="M188.602 8.37695H196.442L200.09 14.3172H196.386L200.341 19.809H191.791L187.514 13.8723H191.975L188.602 8.37695Z" fill="#FDFDFD"/>
<path d="M214.133 8.37695H206.293L202.645 14.3172H206.349L202.394 19.809H210.944L215.224 13.8723H210.76L214.133 8.37695Z" fill="#FDFDFD"/>
<path d="M14.8718 14.0065H22.253C22.3237 14.3667 22.3625 14.734 22.3625 15.1084C22.3625 15.5039 22.3272 15.8853 22.253 16.2456H17.5135V19.2969H21.2747C21.3454 19.6819 21.3843 20.0562 21.3843 20.4165C21.3843 20.8014 21.3489 21.1793 21.2747 21.5537H17.5135V26.9925C17.0544 27.0631 16.62 27.1019 16.2103 27.1019C15.7653 27.1019 15.3168 27.0666 14.8718 26.9925V14.0029V14.0065ZM23.973 14.0065C24.2025 13.9712 24.425 13.9464 24.644 13.9323C24.8594 13.9217 25.0854 13.9146 25.315 13.9146C25.5198 13.9146 25.7317 13.9217 25.9472 13.9323C26.1626 13.9429 26.3886 13.9676 26.6182 14.0065V20.7449C26.6182 21.4795 26.6465 22.1082 26.6994 22.6344C26.7524 23.1571 26.8619 23.5915 27.0243 23.934C27.1868 24.2766 27.4164 24.5309 27.713 24.6933C28.0097 24.8558 28.3911 24.937 28.8608 24.937C29.3305 24.937 29.7119 24.8558 30.0015 24.6933C30.2911 24.5309 30.5172 24.2766 30.6796 23.934C30.8421 23.5915 30.9516 23.1571 31.0046 22.6344C31.0611 22.1117 31.0858 21.4795 31.0858 20.7449V14.0065C31.3259 13.9712 31.5555 13.9464 31.7745 13.9323C31.9899 13.9217 32.2018 13.9146 32.4066 13.9146C32.6221 13.9146 32.8445 13.9217 33.067 13.9323C33.2895 13.9429 33.5156 13.9676 33.7451 14.0065V21.3065C33.7451 22.1859 33.6745 22.9911 33.5297 23.7186C33.3849 24.4461 33.1271 25.0712 32.7527 25.5869C32.3784 26.106 31.8769 26.5051 31.2518 26.7876C30.6231 27.0702 29.8285 27.2114 28.8644 27.2114C27.9002 27.2114 27.102 27.0702 26.4769 26.7876C25.8483 26.5051 25.3503 26.106 24.976 25.5869C24.6016 25.0677 24.3438 24.4461 24.199 23.7186C24.0542 22.9911 23.9836 22.1859 23.9836 21.3065V14.0065H23.973ZM36.1855 14.0065C36.5599 13.9323 36.9166 13.897 37.2521 13.897C37.6159 13.897 37.9867 13.9323 38.3752 14.0065L43.4043 22.2812V14.0065C43.8387 13.9323 44.2554 13.897 44.651 13.897C45.0253 13.897 45.3856 13.9323 45.7352 14.0065V26.996C45.3502 27.0666 45.0006 27.1055 44.6863 27.1055C44.3472 27.1055 43.98 27.0702 43.5844 26.996L38.52 18.7389V26.996C38.135 27.0666 37.743 27.1055 37.3439 27.1055C36.9448 27.1055 36.5599 27.0702 36.1855 26.996V14.0065ZM48.3239 14.0065C48.8289 13.9464 49.3622 13.8935 49.9167 13.8546C50.4712 13.8122 51.0857 13.791 51.7638 13.791C54.0417 13.791 55.7758 14.3561 56.966 15.4898C58.1526 16.6235 58.7495 18.3186 58.7495 20.586C58.7495 22.8533 58.1455 24.5344 56.9412 25.6081C55.7369 26.6817 53.9428 27.215 51.5695 27.215C50.955 27.215 50.3864 27.1938 49.8673 27.1514C49.3481 27.109 48.836 27.0596 48.331 26.9995V14.01L48.3239 14.0065ZM50.9833 24.8982C51.0928 24.9088 51.2305 24.9229 51.4 24.9335C51.5695 24.9476 51.7744 24.9512 52.0145 24.9512C52.569 24.9512 53.0846 24.8876 53.5614 24.7604C54.0382 24.6333 54.4514 24.4037 54.801 24.0647C55.1507 23.7257 55.4297 23.2771 55.6345 22.7085C55.8393 22.1435 55.9418 21.4124 55.9418 20.5224C55.9418 19.6324 55.8393 18.9332 55.6345 18.354C55.4297 17.7748 55.1507 17.3192 54.801 16.9802C54.4514 16.6446 54.0523 16.4045 53.5967 16.2667C53.1447 16.129 52.6644 16.0584 52.1593 16.0584C51.9898 16.0584 51.7956 16.0584 51.5731 16.069C51.3506 16.076 51.1528 16.0902 50.9868 16.1149V24.8946L50.9833 24.8982ZM63.4113 14.0065C63.6656 13.9712 63.9057 13.9429 64.1353 13.9252C64.3648 13.9076 64.6191 13.897 64.8946 13.897C65.1347 13.897 65.3713 13.9076 65.6009 13.9252C65.8305 13.9429 66.0848 13.9712 66.3602 14.0065L70.4322 26.996C69.9378 27.0666 69.454 27.1055 68.9843 27.1055C68.5145 27.1055 68.0802 27.0702 67.6458 26.996L66.9218 24.3932H62.6166L61.875 26.996C61.4406 27.0666 61.0239 27.1055 60.6283 27.1055C60.1833 27.1055 59.7418 27.0702 59.3074 26.996L63.4148 14.0065H63.4113ZM66.3072 22.207L64.8063 16.7506L63.2312 22.207H66.3072ZM75.2424 28.9455L75.9488 27.0666C75.1647 26.9218 74.476 26.657 73.8862 26.272C73.2965 25.8871 72.802 25.4103 72.4029 24.8452C72.0038 24.2801 71.7072 23.6303 71.5059 22.8957C71.3081 22.1611 71.2057 21.3736 71.2057 20.5295C71.2057 19.5653 71.3434 18.6718 71.6224 17.8454C71.9014 17.019 72.3005 16.3056 72.8267 15.7052C73.3494 15.1048 73.9957 14.6316 74.7621 14.2961C75.5285 13.957 76.4008 13.791 77.3755 13.791C77.9547 13.791 78.488 13.8264 78.9754 13.9005C79.4628 13.9712 79.9925 14.123 80.5576 14.3526C80.5329 14.7128 80.4622 15.066 80.3421 15.4085C80.2221 15.7511 80.0879 16.0972 79.9431 16.4469C79.5193 16.3021 79.1484 16.1996 78.8235 16.1396C78.4986 16.0796 78.1101 16.0478 77.6651 16.0478C76.5068 16.0478 75.6168 16.4257 74.9952 17.1779C74.3736 17.9302 74.0628 19.0462 74.0628 20.5295C74.0628 23.4678 75.313 24.937 77.8064 24.937C78.2514 24.937 78.6434 24.9088 78.9825 24.8452C79.3215 24.7852 79.6994 24.6827 80.1232 24.5379C80.2786 24.877 80.4093 25.2196 80.5117 25.5763C80.6141 25.933 80.6883 26.2897 80.7377 26.6499C80.1091 26.8795 79.5475 27.0313 79.046 27.1019C78.5445 27.1761 78.0042 27.2114 77.425 27.2114C77.3897 27.2114 77.3508 27.2114 77.3155 27.2008C77.2802 27.1938 77.2413 27.1902 77.206 27.1902L76.9341 27.8401C76.9941 27.8295 77.0506 27.8189 77.1071 27.8118C77.1601 27.8048 77.2237 27.8012 77.2978 27.8012C77.6616 27.8012 77.9689 27.8471 78.2196 27.9354C78.4739 28.0273 78.6823 28.1473 78.8518 28.3063C79.0213 28.4617 79.1449 28.6418 79.2226 28.8395C79.3003 29.0373 79.3392 29.2527 79.3392 29.4823C79.3392 30.0968 79.0919 30.563 78.5975 30.8808C78.1031 31.1987 77.3967 31.3612 76.482 31.3612C76.2772 31.3612 76.037 31.3506 75.758 31.3258C75.479 31.3011 75.1859 31.2481 74.8716 31.1634C74.8963 30.9479 74.9316 30.7255 74.9811 30.4959C75.0305 30.2663 75.1259 30.0509 75.2707 29.8461C75.4861 29.9167 75.6945 29.9697 75.8852 29.9979C76.0794 30.0297 76.2525 30.0438 76.4114 30.0438C76.8458 30.0438 77.1495 29.9979 77.3261 29.9096C77.4991 29.8178 77.5874 29.6765 77.5874 29.4858C77.5874 29.1609 77.2555 28.9985 76.5915 28.9985C76.422 28.9985 76.2489 29.0091 76.0688 29.0338C75.8887 29.0585 75.6768 29.1115 75.4367 29.1962L75.2389 28.942L75.2424 28.9455ZM85.735 14.0065C85.9893 13.9712 86.2295 13.9429 86.459 13.9252C86.6886 13.9076 86.9429 13.897 87.2183 13.897C87.4585 13.897 87.6951 13.9076 87.9247 13.9252C88.1542 13.9429 88.4085 13.9712 88.684 14.0065L92.756 26.996C92.2616 27.0666 91.7778 27.1055 91.308 27.1055C90.8383 27.1055 90.4039 27.0702 89.9695 26.996L89.2455 24.3932H84.9404L84.1988 26.996C83.7644 27.0666 83.3476 27.1055 82.9521 27.1055C82.5071 27.1055 82.0656 27.0702 81.6312 26.996L85.7386 14.0065H85.735ZM88.631 22.207L87.1301 16.7506L85.5549 22.207H88.631ZM83.7467 11.4036C83.9515 11.1387 84.2305 10.9057 84.5872 10.7008C84.9439 10.496 85.3501 10.3936 85.8092 10.3936C86.0388 10.3936 86.2648 10.4324 86.4873 10.5101C86.7098 10.5878 86.9287 10.6726 87.1477 10.7609C87.3631 10.8527 87.5856 10.9339 87.8081 11.0151C88.0306 11.0928 88.2637 11.1317 88.5039 11.1317C88.7193 11.1317 88.9241 11.0928 89.1113 11.0151C89.2985 10.9374 89.5245 10.7714 89.7894 10.5172C90.1885 10.9374 90.4604 11.3966 90.6017 11.891C90.3969 12.1559 90.1178 12.3854 89.7682 12.5761C89.4186 12.7669 89.0336 12.8657 88.6098 12.8657C88.3555 12.8657 88.1083 12.8269 87.8682 12.7492C87.628 12.6715 87.3914 12.5867 87.1618 12.4949C86.9323 12.4031 86.7062 12.3219 86.4837 12.2442C86.2613 12.1665 86.0388 12.1276 85.8233 12.1276C85.5832 12.1276 85.3748 12.17 85.1982 12.2548C85.0216 12.3395 84.8027 12.502 84.5378 12.7421C84.3577 12.5267 84.1952 12.3113 84.0504 12.1029C83.9056 11.891 83.8032 11.6614 83.7432 11.4072L83.7467 11.4036ZM98.9788 27.2114C98.0006 27.2114 97.1565 27.0419 96.4466 26.7064C95.7332 26.3674 95.1505 25.9012 94.6914 25.3043C94.2323 24.7075 93.8932 24.0047 93.6707 23.1924C93.4482 22.3801 93.3352 21.4901 93.3352 20.5295C93.3352 19.5689 93.4482 18.6718 93.6707 17.8454C93.8932 17.019 94.2358 16.3056 94.6914 15.7052C95.1505 15.1013 95.7332 14.6316 96.4466 14.2961C97.1565 13.957 98.0041 13.791 98.9788 13.791C99.9536 13.791 100.801 13.9606 101.511 14.2961C102.221 14.6316 102.807 15.1013 103.266 15.7052C103.725 16.3091 104.064 17.019 104.287 17.8454C104.509 18.6718 104.622 19.5653 104.622 20.5295C104.622 21.4936 104.509 22.3801 104.287 23.1924C104.064 24.0047 103.722 24.711 103.266 25.3043C102.807 25.9012 102.224 26.3674 101.511 26.7064C100.798 27.0419 99.9536 27.2114 98.9788 27.2114ZM98.9788 25.0077C100.847 25.0077 101.783 23.5138 101.783 20.526C101.783 19.0321 101.557 17.9125 101.105 17.1638C100.653 16.4186 99.9501 16.0442 98.9965 16.0442C97.1035 16.0442 96.157 17.5381 96.157 20.526C96.157 23.5138 97.0965 25.0077 98.9788 25.0077Z" fill="#FDFDFD"/>
<path d="M121.37 24.5024C121.526 24.8414 121.656 25.184 121.759 25.5407C121.861 25.8974 121.935 26.2541 121.985 26.6143C121.356 26.8439 120.794 26.9958 120.293 27.0664C119.791 27.1406 119.251 27.1759 118.672 27.1759C117.648 27.1759 116.747 27.0099 115.977 26.6779C115.207 26.3459 114.557 25.8833 114.031 25.2864C113.505 24.6896 113.113 23.9832 112.845 23.1639C112.58 22.3445 112.446 21.4546 112.446 20.4904C112.446 19.5263 112.583 18.6327 112.862 17.8063C113.141 16.9799 113.54 16.2665 114.067 15.6661C114.593 15.0622 115.236 14.5925 116.002 14.257C116.768 13.9215 117.641 13.752 118.615 13.752C119.195 13.752 119.728 13.7873 120.215 13.8614C120.703 13.9356 121.232 14.0839 121.797 14.3135C121.773 14.6737 121.702 15.0269 121.582 15.3695C121.462 15.712 121.328 16.0581 121.183 16.4078C120.759 16.263 120.388 16.1606 120.06 16.1005C119.735 16.0405 119.35 16.0087 118.901 16.0087C117.743 16.0087 116.853 16.3866 116.232 17.1388C115.61 17.8911 115.299 19.0071 115.299 20.4904C115.299 23.4288 116.549 24.8979 119.043 24.8979C119.488 24.8979 119.88 24.8662 120.219 24.8061C120.558 24.7461 120.936 24.6437 121.36 24.4989L121.37 24.5024ZM128.716 27.1759C127.738 27.1759 126.894 27.0064 126.184 26.6709C125.474 26.3318 124.888 25.8656 124.429 25.2723C123.969 24.6754 123.63 23.9726 123.408 23.1568C123.185 22.3445 123.072 21.4546 123.072 20.4939C123.072 19.5333 123.185 18.6363 123.408 17.8099C123.63 16.9834 123.973 16.27 124.429 15.6697C124.888 15.0657 125.474 14.596 126.184 14.2605C126.897 13.925 127.738 13.7555 128.716 13.7555C129.694 13.7555 130.538 13.925 131.248 14.2605C131.958 14.5996 132.544 15.0693 133.003 15.6697C133.463 16.27 133.802 16.9834 134.024 17.8099C134.247 18.6363 134.36 19.5298 134.36 20.4939C134.36 21.4581 134.247 22.3445 134.024 23.1568C133.802 23.9691 133.459 24.6754 133.003 25.2723C132.544 25.8692 131.962 26.3353 131.248 26.6709C130.535 27.0064 129.691 27.1759 128.716 27.1759ZM128.716 24.9721C130.584 24.9721 131.52 23.4782 131.52 20.4904C131.52 18.9965 131.294 17.877 130.842 17.1318C130.39 16.3866 129.687 16.0122 128.734 16.0122C126.841 16.0122 125.894 17.5061 125.894 20.4939C125.894 23.4817 126.834 24.9757 128.716 24.9757V24.9721ZM136.549 13.9144C137.104 13.865 137.665 13.8261 138.23 13.7979C138.795 13.7696 139.371 13.752 139.95 13.752C140.53 13.752 141.165 13.812 141.787 13.9321C142.408 14.0521 142.97 14.2782 143.468 14.6101C143.969 14.9421 144.376 15.4012 144.69 15.991C145.004 16.5808 145.16 17.3472 145.16 18.2866C145.16 19.2261 145.004 19.9889 144.69 20.5716C144.376 21.1544 143.973 21.617 143.478 21.9525C142.984 22.288 142.433 22.5176 141.822 22.6377C141.215 22.7578 140.614 22.8178 140.021 22.8178C139.866 22.8178 139.717 22.8178 139.576 22.8072C139.438 22.8001 139.308 22.7931 139.187 22.7789V26.9534C138.958 26.9887 138.735 27.0134 138.516 27.0276C138.301 27.0382 138.089 27.0452 137.884 27.0452C137.69 27.0452 137.478 27.0382 137.252 27.0276C137.023 27.017 136.786 26.9922 136.546 26.9534V13.9109L136.549 13.9144ZM139.191 20.5999C139.336 20.6246 139.47 20.6352 139.597 20.6352H140.06C140.36 20.6352 140.657 20.5964 140.946 20.5187C141.236 20.441 141.49 20.3103 141.716 20.1302C141.939 19.9501 142.119 19.7099 142.249 19.4168C142.384 19.1236 142.447 18.7564 142.447 18.3255C142.447 17.8946 142.38 17.5026 142.249 17.1953C142.115 16.8881 141.939 16.6409 141.716 16.4537C141.494 16.2665 141.236 16.1358 140.946 16.0581C140.657 15.9804 140.36 15.9416 140.06 15.9416C139.926 15.9416 139.802 15.9416 139.689 15.9522C139.576 15.9593 139.41 15.9734 139.191 15.9981V20.6034V20.5999ZM147.095 13.9709H154.476C154.55 14.3311 154.586 14.6984 154.586 15.0728C154.586 15.4683 154.55 15.8498 154.476 16.21H149.737V19.0283H153.498C153.572 19.4132 153.607 19.7876 153.607 20.1478C153.607 20.5328 153.572 20.9107 153.498 21.285H149.737V24.7178H154.603C154.674 25.0781 154.713 25.4453 154.713 25.8197C154.713 26.2153 154.677 26.5967 154.603 26.9569H147.095V13.9674V13.9709ZM156.701 13.9709C157.146 13.8968 157.577 13.8614 157.987 13.8614C158.396 13.8614 158.848 13.8968 159.307 13.9709V24.6825H163.814C163.849 24.8874 163.874 25.0816 163.888 25.2688C163.899 25.4559 163.906 25.6325 163.906 25.8021C163.906 25.9963 163.899 26.1835 163.888 26.3707C163.877 26.5578 163.853 26.7521 163.814 26.9569H156.705V13.9674L156.701 13.9709Z" fill="#FDFDFD"/>
<path d="M0.755785 0H224.244V1.51156H0.755785L0 0.755785L0.755785 0ZM0 0.755785V0H0.755785L0 0.755785ZM0 39.4666V0.755785H1.51511V39.4666L0.755785 40.2223L0 39.4666ZM0.755785 40.2223H0V39.4666L0.755785 40.2223ZM224.244 40.2223H0.755785V38.7108H224.244L225 39.4666L224.244 40.2223ZM225 39.4666V40.2223H224.244L225 39.4666ZM225 0.755785V39.4666H223.485V0.755785L224.241 0L224.997 0.755785H225ZM224.244 0H225V0.755785L224.244 0Z" fill="#FDFDFD"/>
</svg>
