<svg xmlns="http://www.w3.org/2000/svg" xml:space="preserve" viewBox="0 0 100 125" fill="#2a353a"><switch><g><path d="M92.3 26.8h-7.6v-6.1c0-2.7-2.2-4.9-4.9-4.9H65.5c-2.7 0-4.9 2.2-4.9 4.9v6.1H53c-2.8 0-5.2 2.3-5.2 5.2v27.2c0 2.8 2.3 5.2 5.2 5.2h12.4v-8.1c-2.8-2.2-4.5-5.5-4.5-9.2 0-6.5 5.3-11.8 11.8-11.8 6.5 0 11.8 5.3 11.8 11.8 0 3.7-1.7 7-4.5 9.2v8.1h12.3c2.9 0 5.2-2.3 5.2-5.2V31.9c0-2.8-2.3-5.1-5.2-5.1zm-14 0H67v-4.6h11.4v4.6z"/><path d="M72.7 40.1c-3.8 0-6.9 3.1-6.9 6.9 0 3 1.9 5.4 4.5 6.4V71c0 4.5-3.7 8.2-8.2 8.2H32c-4.5 0-8.2-3.7-8.2-8.2v-5.2l10.6-11.4c2.7-3 4.4-6.8 4.7-10.8l1-13.3c.2-2.1-.6-4.1-2-5.6s-3.4-2.4-5.5-2.4h-1.1v-.4c0-1.4-1.1-2.5-2.5-2.5s-2.5 1.1-2.5 2.5v5.7c0 1.4 1.1 2.5 2.5 2.5s2.5-1.1 2.5-2.5v-.4h1.1c.7 0 1.3.3 1.8.8s.7 1.2.7 1.9l-1 13.3c-.2 2.5-1.2 4.9-2.7 6.9H11.1c-1.5-2-2.5-4.4-2.7-6.8L7.4 30c0-.7.2-1.4.7-1.9.5-.5 1.1-.8 1.8-.8H11v.4c0 1.4 1.1 2.5 2.5 2.5s2.5-1.1 2.5-2.5V22c0-1.4-1.1-2.5-2.5-2.5S11 20.6 11 22v.4H9.9c-2.1 0-4.1.9-5.5 2.4-1.4 1.5-2.1 3.6-2 5.6l1 13.3c.3 4 2 7.9 4.7 10.8l10.6 11.4V71c0 7.3 5.9 13.1 13.2 13.1h30c7.3 0 13.2-5.9 13.2-13.1V53.5c2.6-1 4.5-3.5 4.5-6.4 0-3.9-3.1-7-6.9-7zM21.4 61.2 15.6 55h11.5l-5.7 6.2z"/><path d="M13.9 36.4V40c0 .4.3.6.6.6h4.4V45c0 .4.3.6.6.6h3.6c.4 0 .6-.3.6-.6v-4.4h4.4c.4 0 .6-.3.6-.6v-3.6c0-.4-.3-.6-.6-.6h-4.4v-4.4c0-.4-.3-.6-.6-.6h-3.6c-.4 0-.6.3-.6.6v4.4h-4.4c-.4 0-.6.3-.6.6z"/></g></switch></svg>