<svg xmlns="http://www.w3.org/2000/svg" xml:space="preserve" viewBox="0 0 72 90" fill="#f39200">
  <path d="M42.4 14.7V1.3c0-.2-.1-.3-.3-.3H29.9c-.2 0-.3.1-.3.3v13.3c0 .2-.1.3-.3.3h-28c-.2.1-.3.2-.3.4v2.2c0 .2.1.3.3.3h69.3c.2 0 .3-.1.3-.3v-2.2c0-.2-.2-.3-.3-.3H42.8c-.2 0-.4-.2-.4-.3zm-2.8-4.2h-2.2c-.2 0-.3.1-.3.3v2.9c0 .2-.1.3-.3.3h-1.6c-.2 0-.3-.1-.3-.3v-2.9c0-.2-.1-.3-.3-.3h-2.2c-.2 0-.3-.1-.3-.3V8c0-.2.1-.3.3-.3h2.2c.2 0 .3-.1.3-.3V4.3c0-.1.1-.3.3-.3h1.6c.2 0 .3.1.3.3v2.9c0 .2.1.3.3.3h2.2c.2.1.4.3.4.5v2.2c0 .1-.2.3-.4.3zM67.9 65.3V20.9c0-.2-.1-.3-.3-.3h-63c-.2 0-.3.1-.3.3v44.4c0 .2-.1.3-.3.3H1.3c-.1.1-.3.2-.3.4v4.7c0 .2.2.3.3.3h24.9c.2 0 .3-.1.3-.3V51.5c0-.2.1-.3.3-.3h18.3c.2 0 .3.1.3.3v19.2c0 .2.1.3.3.3h24.9c.2 0 .3-.1.3-.3V66c0-.2-.2-.3-.3-.3h-2.5c-.1 0-.2-.2-.2-.4zM16.3 40.2H9c-.2 0-.3-.2-.3-.3V29.1c0-.2.1-.3.3-.3h7.3c.2 0 .3.1.3.3v10.7c.1.2-.1.4-.3.4zm15.6 0h-7.3c-.2 0-.3-.2-.3-.3V29.1c0-.2.1-.3.3-.3h7.3c.2 0 .3.1.3.3v10.7c0 .2-.1.4-.3.4zm15.5 0h-7.3c-.2 0-.3-.2-.3-.3V29.1c0-.2.1-.3.3-.3h7.3c.2 0 .3.1.3.3v10.7c.1.2-.1.4-.3.4zm15.6 0h-7.3c-.2 0-.3-.2-.3-.3V29.1c0-.2.1-.3.3-.3H63c.2 0 .3.1.3.3v10.7c0 .2-.1.4-.3.4z"/>
</svg>