<svg xmlns="http://www.w3.org/2000/svg" xml:space="preserve" viewBox="0 0 256 256"><path fill="#f39200" d="M151.4 236.6H10v-60c0-21.7 17.6-39.3 39.3-39.3h62.9c21.7 0 39.3 17.6 39.3 39.3v60z"/><path fill="#2a353a" d="M61.1 137.3H49.3c-21.7 0-39.3 17.6-39.3 39.3v60h11.8v-60c0-21.7 17.6-39.3 39.3-39.3z"/><path fill="#2a353a" d="M100.4 137.3h11.8c21.7 0 39.3 17.6 39.3 39.3v60h-11.8v-60c0-21.7-17.6-39.3-39.3-39.3z"/><path fill="#f39200" d="M65 137.3v-19.7h31.4v19.7c-7.1 11.7-24.2 11.7-31.4 0z"/><path fill="#f39200" d="m88.7 127.4-15.3.1c-21.8.1-39.4-17.5-39.5-39.2V73C33.8 51.3 51.3 33.6 73 33.5l15.3-.1c21.7-.1 39.3 17.5 39.4 39.2v15.3c.2 21.8-17.3 39.4-39 39.5z"/><path fill="#f39200" d="M127.8 72.6c-.1-21.7-17.8-39.3-39.4-39.2H77.6c21.3.4 38.4 17.7 38.5 39.1v15.3c.1 21.7-17.4 39.4-39.1 39.5h-4.5 1l15.3-.1c21.7-.1 39.2-17.8 39.1-39.5l-.1-15.1z"/><path fill="#2a353a" d="M55.4 79.1c0 3.3 2.6 5.9 5.9 5.9 3.3 0 5.9-2.6 5.9-5.9 0-3.3-2.6-5.9-5.9-5.9-3.2 0-5.9 2.6-5.9 5.9zM94.4 78.9c0 3.3 2.6 5.9 5.9 5.9 3.3 0 5.9-2.6 5.9-5.9 0-3.3-2.6-5.9-5.9-5.9-3.2 0-5.9 2.6-5.9 5.9zM80.8 108.5c-3.9 0-7.9-1.5-10.8-4.4-.8-.8-.8-2 0-2.8.8-.8 2-.8 2.8 0 2.2 2.2 5 3.3 8.1 3.3 3 0 5.9-1.2 8.1-3.4.8-.8 2-.8 2.8 0 .8.8.8 2 0 2.8-3 2.9-7 4.5-11 4.5z"/><path fill="#f39200" d="M45.7 88.3V73c-.1-21.7 17.4-39.4 39.1-39.5h4.5H73c-21.7.1-39.2 17.8-39.2 39.5v15.3c.1 21.7 17.8 39.3 39.4 39.2H84c-21.1-.5-38.3-17.8-38.3-39.2z"/><path fill="#2a353a" d="M131.9 66.4V50.7c0-13-10.5-23.6-23.6-23.6v15.7c0 13.1 10.6 23.6 23.6 23.6z"/><path fill="#2a353a" d="M113.1 36.4c-8.7-10.4-21.7-17-36.3-17-24.1 0-43.9 18.2-46.7 41.5l-.4 5.6h18.8c18.3 0 36-6.4 50.1-18.1l14.5-12z"/><path fill="#2a353a" d="M82.8 19.8c-2-.2-3.9-.4-6-.4-24.1 0-43.9 18.2-46.7 41.5l-.4 5.6h11.8l.4-5.6c2.6-21.5 19.5-38.5 40.9-41.1z"/><path fill="#2a353a" d="M49.3 137.3 41.5 157h11.8l-3.9 11.8L73 196.3l-15.7-59h-8zm62.9 0L120 157h-11.8l3.9 11.8-23.6 27.5 15.7-59h8z"/><path fill="#2a353a" d="M72.3 236.6v-40.3l-15.2-59H65c7.2 11.7 24.2 11.7 31.4 0h7.9l-15.7 59v40.3H72.3z"/><path fill="#2a353a" d="M61.3 96.7c-9.7 0-17.7-7.9-17.7-17.7s7.9-17.7 17.7-17.7C71.1 61.3 79 69.2 79 79s-7.9 17.7-17.7 17.7zm0-31.4c-7.6 0-13.7 6.2-13.7 13.7 0 7.6 6.2 13.7 13.7 13.7C68.9 92.7 75 86.5 75 79c.1-7.6-6.1-13.7-13.7-13.7zm39 31.4c-9.7 0-17.7-7.9-17.7-17.7s7.9-17.7 17.7-17.7c9.7 0 17.7 7.9 17.7 17.7s-7.9 17.7-17.7 17.7zm0-31.4c-7.6 0-13.7 6.2-13.7 13.7 0 7.6 6.2 13.7 13.7 13.7 7.6 0 13.7-6.2 13.7-13.7.1-7.6-6.1-13.7-13.7-13.7z"/><path fill="#f39200" d="M81 158.9c-29.2 0-53-23.8-53-53.1V86.1c0-1.1.9-2 2-2s2 .9 2 2v19.7c0 27.1 22 49.2 49.1 49.2s49.1-22 49.1-49.2V86.1c0-1.1.9-2 2-2s2 .9 2 2v19.7c-.2 29.3-24 53.1-53.2 53.1z"/><path fill="#2a353a" d="M130 98h3.9c2.2 0 3.9-1.8 3.9-3.9V82.3c0-2.2-1.8-3.9-3.9-3.9H130c-2.2 0-3.9 1.8-3.9 3.9V94c0 2.2 1.8 4 3.9 4zM27.9 98h3.9c2.2 0 3.9-1.8 3.9-3.9V82.3c0-2.2-1.8-3.9-3.9-3.9h-3.9c-2.2 0-3.9 1.8-3.9 3.9V94c0 2.2 1.7 4 3.9 4z"/><path fill="#f39200" d="M175 216h-38.7c-32.5 0-58.9-26.4-58.9-59 0-1.1.9-2 2-2s2 .9 2 2c0 30.4 24.7 55.1 55 55.1H175c1.1 0 2 .9 2 2 0 1-.9 1.9-2 1.9z"/><path fill="#f39200" d="M175 214c0 8.7 7 15.7 15.7 15.7s15.7-7.1 15.7-15.7c0-8.7-7-15.7-15.7-15.7-8.6 0-15.7 7-15.7 15.7z"/><path fill="#2a353a" d="M182.9 214c0 4.3 3.5 7.9 7.9 7.9 4.3 0 7.9-3.5 7.9-7.9 0-4.3-3.5-7.9-7.9-7.9-4.4.1-7.9 3.6-7.9 7.9zM151.7 84.3c0 26.1 21.1 47.2 47.2 47.2 26 0 47.2-21.1 47.2-47.2S225 37.1 198.9 37.1s-47.2 21.1-47.2 47.2z"/><path fill="#f39200" d="m207.2 84.3 13.4-13.4c2.3-2.3 2.3-6.1 0-8.3-2.3-2.3-6-2.3-8.3 0L198.9 76l-13.5-13.5c-2.3-2.3-6.1-2.3-8.3 0-2.3 2.3-2.3 6.1 0 8.3l13.4 13.4-13.4 13.5c-2.3 2.3-2.3 6 0 8.3 2.3 2.3 6.1 2.3 8.3 0l13.4-13.4 13.4 13.4c2.3 2.3 6 2.3 8.3 0 2.3-2.3 2.3-6.1 0-8.3l-13.3-13.4z"/></svg>